<mxfile host="Electron" modified="2024-05-17T05:27:22.556Z" agent="Mozilla/5.0 (Windows NT 10.0; Win64; x64) AppleWebKit/537.36 (KHTML, like Gecko) draw.io/24.4.0 Chrome/120.0.6099.109 Electron/28.1.0 Safari/537.36" etag="T0bV50JgqYad3cqSgfCQ" version="24.4.0" type="device" pages="2">
  <diagram name="Logo" id="8Fhc35pmSikwly0D8afr">
    <mxGraphModel dx="1098" dy="820" grid="1" gridSize="10" guides="1" tooltips="1" connect="1" arrows="1" fold="1" page="1" pageScale="1" pageWidth="850" pageHeight="1100" math="0" shadow="0">
      <root>
        <mxCell id="0" />
        <mxCell id="1" parent="0" />
        <mxCell id="JfbwzOYOGv9RxcH_t4bF-1" value="&lt;i&gt;&lt;font color=&quot;#007fff&quot;&gt;GO&lt;/font&gt;&lt;/i&gt;" style="text;html=1;align=center;verticalAlign=middle;whiteSpace=wrap;rounded=0;fontFamily=Verdana;fontStyle=1;fontSize=100;fontColor=#0066CC;" parent="1" vertex="1">
          <mxGeometry x="200" y="40" width="170" height="110" as="geometry" />
        </mxCell>
        <mxCell id="JfbwzOYOGv9RxcH_t4bF-2" value="&lt;i&gt;dist&lt;/i&gt;" style="text;html=1;align=center;verticalAlign=middle;whiteSpace=wrap;rounded=0;fontFamily=Comic Sans MS;fontSize=50;fontColor=#007FFF;" parent="1" vertex="1">
          <mxGeometry x="370" y="40" width="100" height="40" as="geometry" />
        </mxCell>
        <mxCell id="iHbqu3D4tLzToyGrAK-_-1" value="" style="rounded=1;whiteSpace=wrap;html=1;fillColor=#007FFF;strokeColor=#007FFF;" vertex="1" parent="1">
          <mxGeometry x="80" y="50" width="120" height="20" as="geometry" />
        </mxCell>
        <mxCell id="iHbqu3D4tLzToyGrAK-_-2" value="" style="rounded=1;whiteSpace=wrap;html=1;fillColor=#007FFF;strokeColor=#007FFF;" vertex="1" parent="1">
          <mxGeometry x="50" y="85" width="120" height="20" as="geometry" />
        </mxCell>
        <mxCell id="iHbqu3D4tLzToyGrAK-_-3" value="" style="rounded=1;whiteSpace=wrap;html=1;fillColor=#007FFF;strokeColor=#007FFF;" vertex="1" parent="1">
          <mxGeometry x="80" y="120" width="120" height="20" as="geometry" />
        </mxCell>
      </root>
    </mxGraphModel>
  </diagram>
  <diagram id="H-RU74k4AX8rD0nUi7dZ" name="Favicon">
    <mxGraphModel dx="1098" dy="820" grid="1" gridSize="10" guides="1" tooltips="1" connect="1" arrows="1" fold="1" page="1" pageScale="1" pageWidth="850" pageHeight="1100" math="0" shadow="0">
      <root>
        <mxCell id="0" />
        <mxCell id="1" parent="0" />
        <mxCell id="tcY47nOVTQzkgOkFlt1l-2" value="" style="ellipse;whiteSpace=wrap;html=1;aspect=fixed;strokeWidth=10;strokeColor=#007FFF;" vertex="1" parent="1">
          <mxGeometry x="40" y="40" width="240" height="240" as="geometry" />
        </mxCell>
        <mxCell id="tcY47nOVTQzkgOkFlt1l-1" value="&lt;i&gt;&lt;font color=&quot;#007fff&quot;&gt;GO&lt;/font&gt;&lt;/i&gt;" style="text;html=1;align=center;verticalAlign=middle;whiteSpace=wrap;rounded=0;fontFamily=Verdana;fontStyle=1;fontSize=100;fontColor=#0066CC;" vertex="1" parent="1">
          <mxGeometry x="75" y="80" width="170" height="110" as="geometry" />
        </mxCell>
        <mxCell id="wK5BUouS5edHWw0rNLJd-1" value="&lt;i&gt;dist&lt;/i&gt;" style="text;html=1;align=center;verticalAlign=middle;whiteSpace=wrap;rounded=0;fontFamily=Comic Sans MS;fontSize=50;fontColor=#007FFF;" vertex="1" parent="1">
          <mxGeometry x="110" y="190" width="100" height="40" as="geometry" />
        </mxCell>
      </root>
    </mxGraphModel>
  </diagram>
</mxfile>
